<?xml version="1.0" encoding="utf-8" standalone="no"?>
<!DOCTYPE svg PUBLIC "-//W3C//DTD SVG 1.1//EN"
  "http://www.w3.org/Graphics/SVG/1.1/DTD/svg11.dtd">
<svg xmlns:xlink="http://www.w3.org/1999/xlink" width="1152pt" height="612pt" viewBox="0 0 1152 612" xmlns="http://www.w3.org/2000/svg" version="1.1">
 <title>Figura B.8.</title>
 <metadata>
  <rdf:RDF xmlns:dc="http://purl.org/dc/elements/1.1/" xmlns:cc="http://creativecommons.org/ns#" xmlns:rdf="http://www.w3.org/1999/02/22-rdf-syntax-ns#">
   <cc:Work>
    <dc:type rdf:resource="http://purl.org/dc/dcmitype/StillImage"/>
    <dc:title>Figura B.8.</dc:title>
    <dc:date>2026-09-22T11:44:38.566183</dc:date>
    <dc:description>Figura vectorial editable del Anuario Estadístico 2026. Los textos se conservan como texto seleccionable.</dc:description>
    <dc:format>image/svg+xml</dc:format>
    <dc:creator>
     <cc:Agent>
      <dc:title>Anuario Estadístico 2026 (Matplotlib)</dc:title>
     </cc:Agent>
    </dc:creator>
   </cc:Work>
  </rdf:RDF>
 </metadata>
 <defs>
  <style type="text/css">*{stroke-linejoin: round; stroke-linecap: butt}</style>
 </defs>
 <g id="figure_1">
  <g id="patch_1">
   <path d="M 0 612 
L 1152 612 
L 1152 0 
L 0 0 
z
" style="fill: none"/>
  </g>
  <g id="patch_2">
   <path d="M 63.36 534.276 
L 1088.64 534.276 
Q 1109.376 534.276 1109.376 523.26 
L 1109.376 85.68 
Q 1109.376 74.664 1088.64 74.664 
L 63.36 74.664 
Q 42.624 74.664 42.624 85.68 
L 42.624 523.26 
Q 42.624 534.276 63.36 534.276 
z
" style="fill: #f8f8fa; stroke: #eef0ee; stroke-width: 0.9; stroke-linejoin: miter"/>
  </g>
  <g id="axes_1">
   <g id="patch_3">
    <path d="M 86.4 486.54 
L 1100.16 486.54 
L 1100.16 113.22 
L 86.4 113.22 
z
" style="fill: #f8f8fa"/>
   </g>
   <g id="matplotlib.axis_1">
    <g id="xtick_1">
     <g id="line2d_1"/>
     <g id="text_1">
      <text style="font-weight: 700; font-size: 7.5px; font-family: 'Noto Sans'; fill: #3c3c3b" transform="translate(135.39 507.200938) rotate(-90)">2000</text>
     </g>
    </g>
    <g id="xtick_2">
     <g id="line2d_2"/>
     <g id="text_2">
      <text style="font-weight: 700; font-size: 7.5px; font-family: 'Noto Sans'; fill: #3c3c3b" transform="translate(173.79 507.200938) rotate(-90)">2001</text>
     </g>
    </g>
    <g id="xtick_3">
     <g id="line2d_3"/>
     <g id="text_3">
      <text style="font-weight: 700; font-size: 7.5px; font-family: 'Noto Sans'; fill: #3c3c3b" transform="translate(212.19 507.200938) rotate(-90)">2002</text>
     </g>
    </g>
    <g id="xtick_4">
     <g id="line2d_4"/>
     <g id="text_4">
      <text style="font-weight: 700; font-size: 7.5px; font-family: 'Noto Sans'; fill: #3c3c3b" transform="translate(250.59 507.200938) rotate(-90)">2003</text>
     </g>
    </g>
    <g id="xtick_5">
     <g id="line2d_5"/>
     <g id="text_5">
      <text style="font-weight: 700; font-size: 7.5px; font-family: 'Noto Sans'; fill: #3c3c3b" transform="translate(288.99 507.200938) rotate(-90)">2004</text>
     </g>
    </g>
    <g id="xtick_6">
     <g id="line2d_6"/>
     <g id="text_6">
      <text style="font-weight: 700; font-size: 7.5px; font-family: 'Noto Sans'; fill: #3c3c3b" transform="translate(327.39 507.200938) rotate(-90)">2005</text>
     </g>
    </g>
    <g id="xtick_7">
     <g id="line2d_7"/>
     <g id="text_7">
      <text style="font-weight: 700; font-size: 7.5px; font-family: 'Noto Sans'; fill: #3c3c3b" transform="translate(365.79 507.200938) rotate(-90)">2006</text>
     </g>
    </g>
    <g id="xtick_8">
     <g id="line2d_8"/>
     <g id="text_8">
      <text style="font-weight: 700; font-size: 7.5px; font-family: 'Noto Sans'; fill: #3c3c3b" transform="translate(404.19 507.200938) rotate(-90)">2007</text>
     </g>
    </g>
    <g id="xtick_9">
     <g id="line2d_9"/>
     <g id="text_9">
      <text style="font-weight: 700; font-size: 7.5px; font-family: 'Noto Sans'; fill: #3c3c3b" transform="translate(442.59 507.200938) rotate(-90)">2008</text>
     </g>
    </g>
    <g id="xtick_10">
     <g id="line2d_10"/>
     <g id="text_10">
      <text style="font-weight: 700; font-size: 7.5px; font-family: 'Noto Sans'; fill: #3c3c3b" transform="translate(480.99 507.200938) rotate(-90)">2009</text>
     </g>
    </g>
    <g id="xtick_11">
     <g id="line2d_11"/>
     <g id="text_11">
      <text style="font-weight: 700; font-size: 7.5px; font-family: 'Noto Sans'; fill: #3c3c3b" transform="translate(519.39 507.200938) rotate(-90)">2010</text>
     </g>
    </g>
    <g id="xtick_12">
     <g id="line2d_12"/>
     <g id="text_12">
      <text style="font-weight: 700; font-size: 7.5px; font-family: 'Noto Sans'; fill: #3c3c3b" transform="translate(557.79 507.200938) rotate(-90)">2011</text>
     </g>
    </g>
    <g id="xtick_13">
     <g id="line2d_13"/>
     <g id="text_13">
      <text style="font-weight: 700; font-size: 7.5px; font-family: 'Noto Sans'; fill: #3c3c3b" transform="translate(596.19 507.200938) rotate(-90)">2012</text>
     </g>
    </g>
    <g id="xtick_14">
     <g id="line2d_14"/>
     <g id="text_14">
      <text style="font-weight: 700; font-size: 7.5px; font-family: 'Noto Sans'; fill: #3c3c3b" transform="translate(634.59 507.200938) rotate(-90)">2013</text>
     </g>
    </g>
    <g id="xtick_15">
     <g id="line2d_15"/>
     <g id="text_15">
      <text style="font-weight: 700; font-size: 7.5px; font-family: 'Noto Sans'; fill: #3c3c3b" transform="translate(672.99 507.200938) rotate(-90)">2014</text>
     </g>
    </g>
    <g id="xtick_16">
     <g id="line2d_16"/>
     <g id="text_16">
      <text style="font-weight: 700; font-size: 7.5px; font-family: 'Noto Sans'; fill: #3c3c3b" transform="translate(711.39 507.200938) rotate(-90)">2015</text>
     </g>
    </g>
    <g id="xtick_17">
     <g id="line2d_17"/>
     <g id="text_17">
      <text style="font-weight: 700; font-size: 7.5px; font-family: 'Noto Sans'; fill: #3c3c3b" transform="translate(749.79 507.200938) rotate(-90)">2016</text>
     </g>
    </g>
    <g id="xtick_18">
     <g id="line2d_18"/>
     <g id="text_18">
      <text style="font-weight: 700; font-size: 7.5px; font-family: 'Noto Sans'; fill: #3c3c3b" transform="translate(788.19 507.200938) rotate(-90)">2017</text>
     </g>
    </g>
    <g id="xtick_19">
     <g id="line2d_19"/>
     <g id="text_19">
      <text style="font-weight: 700; font-size: 7.5px; font-family: 'Noto Sans'; fill: #3c3c3b" transform="translate(826.59 507.200938) rotate(-90)">2018</text>
     </g>
    </g>
    <g id="xtick_20">
     <g id="line2d_20"/>
     <g id="text_20">
      <text style="font-weight: 700; font-size: 7.5px; font-family: 'Noto Sans'; fill: #3c3c3b" transform="translate(864.99 507.200938) rotate(-90)">2019</text>
     </g>
    </g>
    <g id="xtick_21">
     <g id="line2d_21"/>
     <g id="text_21">
      <text style="font-weight: 700; font-size: 7.5px; font-family: 'Noto Sans'; fill: #3c3c3b" transform="translate(903.39 507.200938) rotate(-90)">2020</text>
     </g>
    </g>
    <g id="xtick_22">
     <g id="line2d_22"/>
     <g id="text_22">
      <text style="font-weight: 700; font-size: 7.5px; font-family: 'Noto Sans'; fill: #3c3c3b" transform="translate(941.79 507.200938) rotate(-90)">2021</text>
     </g>
    </g>
    <g id="xtick_23">
     <g id="line2d_23"/>
     <g id="text_23">
      <text style="font-weight: 700; font-size: 7.5px; font-family: 'Noto Sans'; fill: #3c3c3b" transform="translate(980.19 507.200938) rotate(-90)">2022</text>
     </g>
    </g>
    <g id="xtick_24">
     <g id="line2d_24"/>
     <g id="text_24">
      <text style="font-weight: 700; font-size: 7.5px; font-family: 'Noto Sans'; fill: #3c3c3b" transform="translate(1018.59 507.200938) rotate(-90)">2023</text>
     </g>
    </g>
    <g id="xtick_25">
     <g id="line2d_25"/>
     <g id="text_25">
      <text style="font-weight: 700; font-size: 7.5px; font-family: 'Noto Sans'; fill: #3c3c3b" transform="translate(1056.99 507.200938) rotate(-90)">2024</text>
     </g>
    </g>
   </g>
   <g id="matplotlib.axis_2">
    <g id="ytick_1">
     <g id="line2d_26">
      <path d="M 86.4 469.570909 
L 1100.16 469.570909 
" clip-path="url(#p86903e9ade)" style="fill: none; stroke: #d1d1d1; stroke-width: 0.7; stroke-linecap: square"/>
     </g>
     <g id="line2d_27"/>
     <g id="text_26">
      <text style="font-size: 8px; font-family: 'Noto Sans'; text-anchor: end; fill: #3c3c3b" x="82.9" y="473.846909" transform="rotate(-0 82.9 473.846909)">0</text>
     </g>
    </g>
    <g id="ytick_2">
     <g id="line2d_28">
      <path d="M 86.4 413.726684 
L 1100.16 413.726684 
" clip-path="url(#p86903e9ade)" style="fill: none; stroke: #d1d1d1; stroke-width: 0.7; stroke-linecap: square"/>
     </g>
     <g id="line2d_29"/>
     <g id="text_27">
      <text style="font-size: 8px; font-family: 'Noto Sans'; text-anchor: end; fill: #3c3c3b" x="82.9" y="418.002684" transform="rotate(-0 82.9 418.002684)">2,000</text>
     </g>
    </g>
    <g id="ytick_3">
     <g id="line2d_30">
      <path d="M 86.4 357.882459 
L 1100.16 357.882459 
" clip-path="url(#p86903e9ade)" style="fill: none; stroke: #d1d1d1; stroke-width: 0.7; stroke-linecap: square"/>
     </g>
     <g id="line2d_31"/>
     <g id="text_28">
      <text style="font-size: 8px; font-family: 'Noto Sans'; text-anchor: end; fill: #3c3c3b" x="82.9" y="362.158459" transform="rotate(-0 82.9 362.158459)">4,000</text>
     </g>
    </g>
    <g id="ytick_4">
     <g id="line2d_32">
      <path d="M 86.4 302.038234 
L 1100.16 302.038234 
" clip-path="url(#p86903e9ade)" style="fill: none; stroke: #d1d1d1; stroke-width: 0.7; stroke-linecap: square"/>
     </g>
     <g id="line2d_33"/>
     <g id="text_29">
      <text style="font-size: 8px; font-family: 'Noto Sans'; text-anchor: end; fill: #3c3c3b" x="82.9" y="306.314234" transform="rotate(-0 82.9 306.314234)">6,000</text>
     </g>
    </g>
    <g id="ytick_5">
     <g id="line2d_34">
      <path d="M 86.4 246.194009 
L 1100.16 246.194009 
" clip-path="url(#p86903e9ade)" style="fill: none; stroke: #d1d1d1; stroke-width: 0.7; stroke-linecap: square"/>
     </g>
     <g id="line2d_35"/>
     <g id="text_30">
      <text style="font-size: 8px; font-family: 'Noto Sans'; text-anchor: end; fill: #3c3c3b" x="82.9" y="250.470009" transform="rotate(-0 82.9 250.470009)">8,000</text>
     </g>
    </g>
    <g id="ytick_6">
     <g id="line2d_36">
      <path d="M 86.4 190.349784 
L 1100.16 190.349784 
" clip-path="url(#p86903e9ade)" style="fill: none; stroke: #d1d1d1; stroke-width: 0.7; stroke-linecap: square"/>
     </g>
     <g id="line2d_37"/>
     <g id="text_31">
      <text style="font-size: 8px; font-family: 'Noto Sans'; text-anchor: end; fill: #3c3c3b" x="82.9" y="194.625784" transform="rotate(-0 82.9 194.625784)">10,000</text>
     </g>
    </g>
    <g id="ytick_7">
     <g id="line2d_38">
      <path d="M 86.4 134.505559 
L 1100.16 134.505559 
" clip-path="url(#p86903e9ade)" style="fill: none; stroke: #d1d1d1; stroke-width: 0.7; stroke-linecap: square"/>
     </g>
     <g id="line2d_39"/>
     <g id="text_32">
      <text style="font-size: 8px; font-family: 'Noto Sans'; text-anchor: end; fill: #3c3c3b" x="82.9" y="138.781559" transform="rotate(-0 82.9 138.781559)">12,000</text>
     </g>
    </g>
   </g>
   <g id="FillBetweenPolyCollection_1">
    <defs>
     <path id="m9ca7c860cb" d="M 132.48 -367.719638 
L 132.48 -142.429091 
L 170.88 -142.429091 
L 209.28 -142.429091 
L 247.68 -142.429091 
L 286.08 -142.429091 
L 324.48 -142.429091 
L 362.88 -142.429091 
L 401.28 -142.429091 
L 439.68 -142.429091 
L 478.08 -142.429091 
L 516.48 -142.429091 
L 554.88 -142.429091 
L 593.28 -142.429091 
L 631.68 -142.429091 
L 670.08 -142.429091 
L 708.48 -142.429091 
L 746.88 -142.429091 
L 785.28 -142.429091 
L 823.68 -142.429091 
L 862.08 -142.429091 
L 900.48 -142.429091 
L 938.88 -142.429091 
L 977.28 -142.429091 
L 1015.68 -142.429091 
L 1054.08 -142.429091 
L 1054.08 -168.621626 
L 1054.08 -168.621626 
L 1015.68 -170.066393 
L 977.28 -178.645443 
L 938.88 -185.882784 
L 900.48 -197.301762 
L 862.08 -202.296415 
L 823.68 -213.790011 
L 785.28 -239.087072 
L 746.88 -206.755719 
L 708.48 -233.123178 
L 670.08 -218.085486 
L 631.68 -301.579686 
L 593.28 -297.568309 
L 554.88 -299.859299 
L 516.48 -318.58356 
L 478.08 -336.904104 
L 439.68 -379.643113 
L 401.28 -412.948055 
L 362.88 -443.257237 
L 324.48 -462.930574 
L 286.08 -473.989594 
L 247.68 -477.581494 
L 209.28 -481.810909 
L 170.88 -434.495213 
L 132.48 -367.719638 
z
" style="stroke: #86adae; stroke-opacity: 0.18"/>
    </defs>
    <g clip-path="url(#p86903e9ade)">
     <use xlink:href="#m9ca7c860cb" x="0" y="612" style="fill: #86adae; fill-opacity: 0.18; stroke: #86adae; stroke-opacity: 0.18"/>
    </g>
   </g>
   <g id="LineCollection_1">
    <path d="M 132.48 469.570909 
L 132.48 244.280362 
" clip-path="url(#p86903e9ade)" style="fill: none; stroke: #006157; stroke-opacity: 0.75; stroke-width: 0.65"/>
    <path d="M 170.88 469.570909 
L 170.88 177.504787 
" clip-path="url(#p86903e9ade)" style="fill: none; stroke: #006157; stroke-opacity: 0.75; stroke-width: 0.65"/>
    <path d="M 209.28 469.570909 
L 209.28 130.189091 
" clip-path="url(#p86903e9ade)" style="fill: none; stroke: #006157; stroke-opacity: 0.75; stroke-width: 0.65"/>
    <path d="M 247.68 469.570909 
L 247.68 134.418506 
" clip-path="url(#p86903e9ade)" style="fill: none; stroke: #006157; stroke-opacity: 0.75; stroke-width: 0.65"/>
    <path d="M 286.08 469.570909 
L 286.08 138.010406 
" clip-path="url(#p86903e9ade)" style="fill: none; stroke: #006157; stroke-opacity: 0.75; stroke-width: 0.65"/>
    <path d="M 324.48 469.570909 
L 324.48 149.069426 
" clip-path="url(#p86903e9ade)" style="fill: none; stroke: #006157; stroke-opacity: 0.75; stroke-width: 0.65"/>
    <path d="M 362.88 469.570909 
L 362.88 168.742763 
" clip-path="url(#p86903e9ade)" style="fill: none; stroke: #006157; stroke-opacity: 0.75; stroke-width: 0.65"/>
    <path d="M 401.28 469.570909 
L 401.28 199.051945 
" clip-path="url(#p86903e9ade)" style="fill: none; stroke: #006157; stroke-opacity: 0.75; stroke-width: 0.65"/>
    <path d="M 439.68 469.570909 
L 439.68 232.356887 
" clip-path="url(#p86903e9ade)" style="fill: none; stroke: #006157; stroke-opacity: 0.75; stroke-width: 0.65"/>
    <path d="M 478.08 469.570909 
L 478.08 275.095896 
" clip-path="url(#p86903e9ade)" style="fill: none; stroke: #006157; stroke-opacity: 0.75; stroke-width: 0.65"/>
    <path d="M 516.48 469.570909 
L 516.48 293.41644 
" clip-path="url(#p86903e9ade)" style="fill: none; stroke: #006157; stroke-opacity: 0.75; stroke-width: 0.65"/>
    <path d="M 554.88 469.570909 
L 554.88 312.140701 
" clip-path="url(#p86903e9ade)" style="fill: none; stroke: #006157; stroke-opacity: 0.75; stroke-width: 0.65"/>
    <path d="M 593.28 469.570909 
L 593.28 314.431691 
" clip-path="url(#p86903e9ade)" style="fill: none; stroke: #006157; stroke-opacity: 0.75; stroke-width: 0.65"/>
    <path d="M 631.68 469.570909 
L 631.68 310.420314 
" clip-path="url(#p86903e9ade)" style="fill: none; stroke: #006157; stroke-opacity: 0.75; stroke-width: 0.65"/>
    <path d="M 670.08 469.570909 
L 670.08 393.914514 
" clip-path="url(#p86903e9ade)" style="fill: none; stroke: #006157; stroke-opacity: 0.75; stroke-width: 0.65"/>
    <path d="M 708.48 469.570909 
L 708.48 378.876822 
" clip-path="url(#p86903e9ade)" style="fill: none; stroke: #006157; stroke-opacity: 0.75; stroke-width: 0.65"/>
    <path d="M 746.88 469.570909 
L 746.88 405.244281 
" clip-path="url(#p86903e9ade)" style="fill: none; stroke: #006157; stroke-opacity: 0.75; stroke-width: 0.65"/>
    <path d="M 785.28 469.570909 
L 785.28 372.912928 
" clip-path="url(#p86903e9ade)" style="fill: none; stroke: #006157; stroke-opacity: 0.75; stroke-width: 0.65"/>
    <path d="M 823.68 469.570909 
L 823.68 398.209989 
" clip-path="url(#p86903e9ade)" style="fill: none; stroke: #006157; stroke-opacity: 0.75; stroke-width: 0.65"/>
    <path d="M 862.08 469.570909 
L 862.08 409.703585 
" clip-path="url(#p86903e9ade)" style="fill: none; stroke: #006157; stroke-opacity: 0.75; stroke-width: 0.65"/>
    <path d="M 900.48 469.570909 
L 900.48 414.698238 
" clip-path="url(#p86903e9ade)" style="fill: none; stroke: #006157; stroke-opacity: 0.75; stroke-width: 0.65"/>
    <path d="M 938.88 469.570909 
L 938.88 426.117216 
" clip-path="url(#p86903e9ade)" style="fill: none; stroke: #006157; stroke-opacity: 0.75; stroke-width: 0.65"/>
    <path d="M 977.28 469.570909 
L 977.28 433.354557 
" clip-path="url(#p86903e9ade)" style="fill: none; stroke: #006157; stroke-opacity: 0.75; stroke-width: 0.65"/>
    <path d="M 1015.68 469.570909 
L 1015.68 441.933607 
" clip-path="url(#p86903e9ade)" style="fill: none; stroke: #006157; stroke-opacity: 0.75; stroke-width: 0.65"/>
    <path d="M 1054.08 469.570909 
L 1054.08 443.378374 
" clip-path="url(#p86903e9ade)" style="fill: none; stroke: #006157; stroke-opacity: 0.75; stroke-width: 0.65"/>
   </g>
   <g id="line2d_40">
    <path d="M 132.48 244.280362 
L 170.88 177.504787 
L 209.28 130.189091 
L 247.68 134.418506 
L 286.08 138.010406 
L 324.48 149.069426 
L 362.88 168.742763 
L 401.28 199.051945 
L 439.68 232.356887 
L 478.08 275.095896 
L 516.48 293.41644 
L 554.88 312.140701 
L 593.28 314.431691 
L 631.68 310.420314 
L 670.08 393.914514 
L 708.48 378.876822 
L 746.88 405.244281 
L 785.28 372.912928 
L 823.68 398.209989 
L 862.08 409.703585 
L 900.48 414.698238 
L 938.88 426.117216 
L 977.28 433.354557 
L 1015.68 441.933607 
L 1054.08 443.378374 
" clip-path="url(#p86903e9ade)" style="fill: none; stroke: #006157; stroke-width: 1.2; stroke-linecap: square"/>
    <defs>
     <path id="mbea771fbd7" d="M 0 1.6 
C 0.424325 1.6 0.831328 1.431414 1.131371 1.131371 
C 1.431414 0.831328 1.6 0.424325 1.6 0 
C 1.6 -0.424325 1.431414 -0.831328 1.131371 -1.131371 
C 0.831328 -1.431414 0.424325 -1.6 0 -1.6 
C -0.424325 -1.6 -0.831328 -1.431414 -1.131371 -1.131371 
C -1.431414 -0.831328 -1.6 -0.424325 -1.6 0 
C -1.6 0.424325 -1.431414 0.831328 -1.131371 1.131371 
C -0.831328 1.431414 -0.424325 1.6 0 1.6 
z
" style="stroke: #006157"/>
    </defs>
    <g clip-path="url(#p86903e9ade)">
     <use xlink:href="#mbea771fbd7" x="132.48" y="244.280362" style="fill: #006157; stroke: #006157"/>
     <use xlink:href="#mbea771fbd7" x="170.88" y="177.504787" style="fill: #006157; stroke: #006157"/>
     <use xlink:href="#mbea771fbd7" x="209.28" y="130.189091" style="fill: #006157; stroke: #006157"/>
     <use xlink:href="#mbea771fbd7" x="247.68" y="134.418506" style="fill: #006157; stroke: #006157"/>
     <use xlink:href="#mbea771fbd7" x="286.08" y="138.010406" style="fill: #006157; stroke: #006157"/>
     <use xlink:href="#mbea771fbd7" x="324.48" y="149.069426" style="fill: #006157; stroke: #006157"/>
     <use xlink:href="#mbea771fbd7" x="362.88" y="168.742763" style="fill: #006157; stroke: #006157"/>
     <use xlink:href="#mbea771fbd7" x="401.28" y="199.051945" style="fill: #006157; stroke: #006157"/>
     <use xlink:href="#mbea771fbd7" x="439.68" y="232.356887" style="fill: #006157; stroke: #006157"/>
     <use xlink:href="#mbea771fbd7" x="478.08" y="275.095896" style="fill: #006157; stroke: #006157"/>
     <use xlink:href="#mbea771fbd7" x="516.48" y="293.41644" style="fill: #006157; stroke: #006157"/>
     <use xlink:href="#mbea771fbd7" x="554.88" y="312.140701" style="fill: #006157; stroke: #006157"/>
     <use xlink:href="#mbea771fbd7" x="593.28" y="314.431691" style="fill: #006157; stroke: #006157"/>
     <use xlink:href="#mbea771fbd7" x="631.68" y="310.420314" style="fill: #006157; stroke: #006157"/>
     <use xlink:href="#mbea771fbd7" x="670.08" y="393.914514" style="fill: #006157; stroke: #006157"/>
     <use xlink:href="#mbea771fbd7" x="708.48" y="378.876822" style="fill: #006157; stroke: #006157"/>
     <use xlink:href="#mbea771fbd7" x="746.88" y="405.244281" style="fill: #006157; stroke: #006157"/>
     <use xlink:href="#mbea771fbd7" x="785.28" y="372.912928" style="fill: #006157; stroke: #006157"/>
     <use xlink:href="#mbea771fbd7" x="823.68" y="398.209989" style="fill: #006157; stroke: #006157"/>
     <use xlink:href="#mbea771fbd7" x="862.08" y="409.703585" style="fill: #006157; stroke: #006157"/>
     <use xlink:href="#mbea771fbd7" x="900.48" y="414.698238" style="fill: #006157; stroke: #006157"/>
     <use xlink:href="#mbea771fbd7" x="938.88" y="426.117216" style="fill: #006157; stroke: #006157"/>
     <use xlink:href="#mbea771fbd7" x="977.28" y="433.354557" style="fill: #006157; stroke: #006157"/>
     <use xlink:href="#mbea771fbd7" x="1015.68" y="441.933607" style="fill: #006157; stroke: #006157"/>
     <use xlink:href="#mbea771fbd7" x="1054.08" y="443.378374" style="fill: #006157; stroke: #006157"/>
    </g>
   </g>
   <g id="text_33">
    <text style="font-weight: 700; font-size: 8.5px; font-family: 'Noto Sans'; text-anchor: end; fill: #3c3c3b" x="1052.08" y="431.378374" transform="rotate(-0 1052.08 431.378374)">938.1</text>
   </g>
   <g id="legend_1">
    <g id="line2d_41">
     <path d="M 496.764844 551.0502 
L 505.764844 551.0502 
L 514.764844 551.0502 
" style="fill: none; stroke: #006157; stroke-width: 1.2; stroke-linecap: square"/>
     <g>
      <use xlink:href="#mbea771fbd7" x="505.764844" y="551.0502" style="fill: #006157; stroke: #006157"/>
     </g>
    </g>
    <g id="text_34">
     <text style="font-size: 9px; font-family: 'Noto Sans'; text-anchor: start; fill: #3c3c3b" x="521.964844" y="554.2002" transform="rotate(-0 521.964844 554.2002)">Tráfico local del servicio fijo de telefonía</text>
    </g>
   </g>
  </g>
  <g id="text_35">
   <text style="font-weight: 700; font-size: 13.2px; font-family: 'Noto Sans'; text-anchor: start; fill: #3c3c3b" x="79.488" y="49.7976" transform="rotate(-0 79.488 49.7976)">Figura B.8.</text>
  </g>
  <g id="text_36">
   <text style="font-size: 13.2px; font-family: 'Noto Sans'; text-anchor: start; fill: #3c3c3b" x="167.04" y="49.7976" transform="rotate(-0 167.04 49.7976)">Tráfico de minutos del Servicio Fijo de Telefonía (2000-2024)</text>
  </g>
  <g id="text_37">
   <text style="font-weight: 700; font-size: 8px; font-family: 'Noto Sans'; text-anchor: start; fill: #3c3c3b" x="63.36" y="574.652" transform="rotate(-0 63.36 574.652)">Fuente:</text>
  </g>
  <g id="text_38">
   <text style="font-size: 8px; font-family: 'Noto Sans'; text-anchor: start; fill: #3c3c3b" x="109.44" y="574.652" transform="rotate(-0 109.44 574.652)">Elaborado por CRT con datos proporcionados por los operadores de telecomunicaciones a diciembre de 2024.</text>
  </g>
  <g id="text_39">
   <text style="font-weight: 700; font-size: 8px; font-family: 'Noto Sans'; text-anchor: start; fill: #3c3c3b" x="63.36" y="593.012" transform="rotate(-0 63.36 593.012)">Nota:</text>
  </g>
  <g id="text_40">
   <text style="font-size: 8px; font-family: 'Noto Sans'; text-anchor: start; fill: #3c3c3b" x="99.072" y="593.012" transform="rotate(-0 99.072 593.012)">Cifras en millones de minutos. Para cada año los datos se presentan acumulados al mes de diciembre.</text>
  </g>
  <g id="patch_4">
   <path d="M 65.664 50.184 
L 69.12 50.184 
Q 71.424 50.184 71.424 48.96 
L 71.424 40.392 
Q 71.424 39.168 69.12 39.168 
L 65.664 39.168 
Q 63.36 39.168 63.36 40.392 
L 63.36 48.96 
Q 63.36 50.184 65.664 50.184 
z
" style="fill: #4a7d75"/>
  </g>
 </g>
 <defs>
  <clipPath id="p86903e9ade">
   <rect x="86.4" y="113.22" width="1013.76" height="373.32"/>
  </clipPath>
 </defs>
</svg>
