<?xml version="1.0" encoding="utf-8" standalone="no"?>
<!DOCTYPE svg PUBLIC "-//W3C//DTD SVG 1.1//EN"
  "http://www.w3.org/Graphics/SVG/1.1/DTD/svg11.dtd">
<svg xmlns:xlink="http://www.w3.org/1999/xlink" width="1152pt" height="648pt" viewBox="0 0 1152 648" xmlns="http://www.w3.org/2000/svg" version="1.1">
 <title>Figura E.9.</title>
 <metadata>
  <rdf:RDF xmlns:dc="http://purl.org/dc/elements/1.1/" xmlns:cc="http://creativecommons.org/ns#" xmlns:rdf="http://www.w3.org/1999/02/22-rdf-syntax-ns#">
   <cc:Work>
    <dc:type rdf:resource="http://purl.org/dc/dcmitype/StillImage"/>
    <dc:title>Figura E.9.</dc:title>
    <dc:date>2026-09-22T11:49:36.887687</dc:date>
    <dc:description>Figura vectorial editable del Anuario Estadístico 2026. Los textos se conservan como texto seleccionable.</dc:description>
    <dc:format>image/svg+xml</dc:format>
    <dc:creator>
     <cc:Agent>
      <dc:title>Anuario Estadístico 2026 (Matplotlib)</dc:title>
     </cc:Agent>
    </dc:creator>
   </cc:Work>
  </rdf:RDF>
 </metadata>
 <defs>
  <style type="text/css">*{stroke-linejoin: round; stroke-linecap: butt}</style>
 </defs>
 <g id="figure_1">
  <g id="patch_1">
   <path d="M 0 648 
L 1152 648 
L 1152 0 
L 0 0 
z
" style="fill: none"/>
  </g>
  <g id="axes_1">
   <g id="patch_2">
    <path d="M 357.12 518.4 
L 1048.32 518.4 
L 1048.32 142.56 
L 357.12 142.56 
z
" style="fill: #f8f8fa"/>
   </g>
   <g id="patch_3">
    <path d="M 357.12 167.379623 
L 965.40552 167.379623 
L 965.40552 209.927547 
L 357.12 209.927547 
z
" clip-path="url(#pd6eeed45b9)" style="fill: #335a5c"/>
   </g>
   <g id="patch_4">
    <path d="M 357.12 238.29283 
L 556.551421 238.29283 
L 556.551421 280.840755 
L 357.12 280.840755 
z
" clip-path="url(#pd6eeed45b9)" style="fill: #335a5c"/>
   </g>
   <g id="patch_5">
    <path d="M 357.12 309.206038 
L 420.7706 309.206038 
L 420.7706 351.753962 
L 357.12 351.753962 
z
" clip-path="url(#pd6eeed45b9)" style="fill: #335a5c"/>
   </g>
   <g id="patch_6">
    <path d="M 357.12 380.119245 
L 417.661551 380.119245 
L 417.661551 422.66717 
L 357.12 422.66717 
z
" clip-path="url(#pd6eeed45b9)" style="fill: #335a5c"/>
   </g>
   <g id="patch_7">
    <path d="M 357.12 451.032453 
L 363.692589 451.032453 
L 363.692589 493.580377 
L 357.12 493.580377 
z
" clip-path="url(#pd6eeed45b9)" style="fill: #335a5c"/>
   </g>
   <g id="matplotlib.axis_1"/>
   <g id="matplotlib.axis_2">
    <g id="ytick_1">
     <g id="line2d_1"/>
     <g id="text_1">
      <text style="font-size: 11px; font-family: 'Noto Sans'; text-anchor: end; fill: #3c3c3b" x="337.12" y="194.533085" transform="rotate(-0 337.12 194.533085)">Conexión a Internet fijo</text>
     </g>
    </g>
    <g id="ytick_2">
     <g id="line2d_2"/>
     <g id="text_2">
      <text style="font-size: 11px; font-family: 'Noto Sans'; text-anchor: end; fill: #3c3c3b" x="337.12" y="265.446292" transform="rotate(-0 337.12 265.446292)">Telefonía fija</text>
     </g>
    </g>
    <g id="ytick_3">
     <g id="line2d_3"/>
     <g id="text_3">
      <text style="font-size: 11px; font-family: 'Noto Sans'; text-anchor: end; fill: #3c3c3b" x="337.12" y="336.3595" transform="rotate(-0 337.12 336.3595)">Telefonía móvil</text>
     </g>
    </g>
    <g id="ytick_4">
     <g id="line2d_4"/>
     <g id="text_4">
      <text style="font-size: 11px; font-family: 'Noto Sans'; fill: #3c3c3b" transform="translate(234.512344 399.781708)">Conexión a Internet</text>
      <text style="font-size: 11px; font-family: 'Noto Sans'; fill: #3c3c3b" transform="translate(245.149687 414.763708)">por datos móviles</text>
     </g>
    </g>
    <g id="ytick_5">
     <g id="line2d_5"/>
     <g id="text_5">
      <text style="font-size: 11px; font-family: 'Noto Sans'; text-anchor: end; fill: #3c3c3b" x="337.12" y="478.185915" transform="rotate(-0 337.12 478.185915)">Televisión de paga</text>
     </g>
    </g>
   </g>
   <g id="text_6">
    <g id="patch_8">
     <path d="M 968.873332 201.025585 
L 1006.097707 201.025585 
Q 1009.097707 201.025585 1009.097707 198.025585 
L 1009.097707 179.281585 
Q 1009.097707 176.281585 1006.097707 176.281585 
L 968.873332 176.281585 
Q 965.873332 176.281585 965.873332 179.281585 
L 965.873332 198.025585 
Q 965.873332 201.025585 968.873332 201.025585 
z
" style="fill: #ffffff; opacity: 0.98; stroke: #335a5c; stroke-width: 0.8; stroke-linejoin: miter"/>
    </g>
    <text style="font-weight: 700; font-size: 12px; font-family: 'Noto Sans'; text-anchor: middle; fill: #3c3c3b" x="987.48552" y="193.309585" transform="rotate(-0 987.48552 193.309585)">63.4%</text>
   </g>
   <g id="text_7">
    <g id="patch_9">
     <path d="M 560.019234 271.938792 
L 597.243609 271.938792 
Q 600.243609 271.938792 600.243609 268.938792 
L 600.243609 250.194792 
Q 600.243609 247.194792 597.243609 247.194792 
L 560.019234 247.194792 
Q 557.019234 247.194792 557.019234 250.194792 
L 557.019234 268.938792 
Q 557.019234 271.938792 560.019234 271.938792 
z
" style="fill: #ffffff; opacity: 0.98; stroke: #335a5c; stroke-width: 0.8; stroke-linejoin: miter"/>
    </g>
    <text style="font-weight: 700; font-size: 12px; font-family: 'Noto Sans'; text-anchor: middle; fill: #3c3c3b" x="578.631421" y="264.222792" transform="rotate(-0 578.631421 264.222792)">20.8%</text>
   </g>
   <g id="text_8">
    <g id="patch_10">
     <path d="M 427.6706 342.852 
L 458.0306 342.852 
Q 461.0306 342.852 461.0306 339.852 
L 461.0306 321.108 
Q 461.0306 318.108 458.0306 318.108 
L 427.6706 318.108 
Q 424.6706 318.108 424.6706 321.108 
L 424.6706 339.852 
Q 424.6706 342.852 427.6706 342.852 
z
" style="fill: #ffffff; opacity: 0.98; stroke: #335a5c; stroke-width: 0.8; stroke-linejoin: miter"/>
    </g>
    <text style="font-weight: 700; font-size: 12px; font-family: 'Noto Sans'; text-anchor: middle; fill: #3c3c3b" x="442.8506" y="335.136" transform="rotate(-0 442.8506 335.136)">6.6%</text>
   </g>
   <g id="text_9">
    <g id="patch_11">
     <path d="M 424.561551 413.765208 
L 454.921551 413.765208 
Q 457.921551 413.765208 457.921551 410.765208 
L 457.921551 392.021208 
Q 457.921551 389.021208 454.921551 389.021208 
L 424.561551 389.021208 
Q 421.561551 389.021208 421.561551 392.021208 
L 421.561551 410.765208 
Q 421.561551 413.765208 424.561551 413.765208 
z
" style="fill: #ffffff; opacity: 0.98; stroke: #335a5c; stroke-width: 0.8; stroke-linejoin: miter"/>
    </g>
    <text style="font-weight: 700; font-size: 12px; font-family: 'Noto Sans'; text-anchor: middle; fill: #3c3c3b" x="439.741551" y="406.049208" transform="rotate(-0 439.741551 406.049208)">6.3%</text>
   </g>
   <g id="text_10">
    <g id="patch_12">
     <path d="M 370.592589 484.678415 
L 400.952589 484.678415 
Q 403.952589 484.678415 403.952589 481.678415 
L 403.952589 462.934415 
Q 403.952589 459.934415 400.952589 459.934415 
L 370.592589 459.934415 
Q 367.592589 459.934415 367.592589 462.934415 
L 367.592589 481.678415 
Q 367.592589 484.678415 370.592589 484.678415 
z
" style="fill: #ffffff; opacity: 0.98; stroke: #335a5c; stroke-width: 0.8; stroke-linejoin: miter"/>
    </g>
    <text style="font-weight: 700; font-size: 12px; font-family: 'Noto Sans'; text-anchor: middle; fill: #3c3c3b" x="385.772589" y="476.962415" transform="rotate(-0 385.772589 476.962415)">0.7%</text>
   </g>
  </g>
  <g id="text_11">
   <text style="font-weight: 700; font-size: 16px; font-family: 'Noto Sans'; text-anchor: start; fill: #3c3c3b" x="84.096" y="83.968" transform="rotate(-0 84.096 83.968)">Figura E.9.</text>
  </g>
  <g id="text_12">
   <text style="font-size: 14.5px; font-family: 'Noto Sans'; text-anchor: start; fill: #3c3c3b" x="207.36" y="83.386" transform="rotate(-0 207.36 83.386)">Servicios de telecomunicaciones que consideran más importantes las MiPymes para realizar actividades de importación y/o exportación</text>
  </g>
  <g id="text_13">
   <text style="font-weight: 700; font-size: 9px; font-family: 'Noto Sans'; text-anchor: start; fill: #3c3c3b" x="63.36" y="568.944" transform="rotate(-0 63.36 568.944)">Fuente:</text>
  </g>
  <g id="text_14">
   <text style="font-size: 9px; font-family: 'Noto Sans'; text-anchor: start; fill: #3c3c3b" x="116.352" y="568.944" transform="rotate(-0 116.352 568.944)">Elaborado por CRT, Contratación, percepción y uso de telecomunicaciones por MiPymes importadoras y/o exportadoras.</text>
  </g>
  <g id="text_15">
   <text style="font-weight: 700; font-size: 9px; font-family: 'Noto Sans'; text-anchor: start; fill: #3c3c3b" x="63.36" y="587.088" transform="rotate(-0 63.36 587.088)">Nota:</text>
  </g>
  <g id="text_16">
   <text style="font-size: 9px; font-family: 'Noto Sans'; text-anchor: start; fill: #3c3c3b" x="103.68" y="587.088" transform="rotate(-0 103.68 587.088)">Debido a que se excluyen las menciones "No sabe/No contestó", la suma no da 100%.</text>
  </g>
  <g id="patch_13">
   <path d="M 70.272 83.592 
L 73.728 83.592 
Q 76.032 83.592 76.032 82.296 
L 76.032 73.224 
Q 76.032 71.928 73.728 71.928 
L 70.272 71.928 
Q 67.968 71.928 67.968 73.224 
L 67.968 82.296 
Q 67.968 83.592 70.272 83.592 
z
" style="fill: #4a7d75"/>
  </g>
 </g>
 <defs>
  <clipPath id="pd6eeed45b9">
   <rect x="357.12" y="142.56" width="691.2" height="375.84"/>
  </clipPath>
 </defs>
</svg>
